<svg width="16" height="16" viewBox="0 0 16 16" fill="none" xmlns="http://www.w3.org/2000/svg">
<path fill-rule="evenodd" clip-rule="evenodd" d="M1.30957 12.6836C1.30957 12.4247 1.51944 12.2148 1.77832 12.2148H14.9033C15.1622 12.2148 15.3721 12.4247 15.3721 12.6836C15.3721 12.9425 15.1622 13.1523 14.9033 13.1523H1.77832C1.51944 13.1523 1.30957 12.9425 1.30957 12.6836Z" fill="#848484"/>
<path fill-rule="evenodd" clip-rule="evenodd" d="M2.52166 1.70818C2.69747 1.53237 2.93593 1.43359 3.18457 1.43359H8.80957C9.05821 1.43359 9.29667 1.53237 9.47248 1.70818C9.6483 1.884 9.74707 2.12245 9.74707 2.37109V12.6836C9.74707 12.9425 9.5372 13.1523 9.27832 13.1523C9.01944 13.1523 8.80957 12.9425 8.80957 12.6836V2.37109H3.18457V12.6836C3.18457 12.9425 2.9747 13.1523 2.71582 13.1523C2.45694 13.1523 2.24707 12.9425 2.24707 12.6836V2.37109C2.24707 2.12245 2.34584 1.884 2.52166 1.70818Z" fill="#848484"/>
<path fill-rule="evenodd" clip-rule="evenodd" d="M8.80957 5.65234C8.80957 5.39346 9.01944 5.18359 9.27832 5.18359H13.4971C13.7457 5.18359 13.9842 5.28237 14.16 5.45818C14.3358 5.634 14.4346 5.87245 14.4346 6.12109V12.6836C14.4346 12.9425 14.2247 13.1523 13.9658 13.1523C13.7069 13.1523 13.4971 12.9425 13.4971 12.6836V6.12109H9.27832C9.01944 6.12109 8.80957 5.91123 8.80957 5.65234Z" fill="#848484"/>
<path fill-rule="evenodd" clip-rule="evenodd" d="M4.12207 4.24609C4.12207 3.98721 4.33194 3.77734 4.59082 3.77734H6.46582C6.7247 3.77734 6.93457 3.98721 6.93457 4.24609C6.93457 4.50498 6.7247 4.71484 6.46582 4.71484H4.59082C4.33194 4.71484 4.12207 4.50498 4.12207 4.24609Z" fill="#848484"/>
<path fill-rule="evenodd" clip-rule="evenodd" d="M5.05957 7.99609C5.05957 7.73721 5.26944 7.52734 5.52832 7.52734H7.40332C7.6622 7.52734 7.87207 7.73721 7.87207 7.99609C7.87207 8.25498 7.6622 8.46484 7.40332 8.46484H5.52832C5.26944 8.46484 5.05957 8.25498 5.05957 7.99609Z" fill="#848484"/>
<path fill-rule="evenodd" clip-rule="evenodd" d="M4.12207 10.3398C4.12207 10.081 4.33194 9.87109 4.59082 9.87109H6.46582C6.7247 9.87109 6.93457 10.081 6.93457 10.3398C6.93457 10.5987 6.7247 10.8086 6.46582 10.8086H4.59082C4.33194 10.8086 4.12207 10.5987 4.12207 10.3398Z" fill="#848484"/>
<path fill-rule="evenodd" clip-rule="evenodd" d="M10.6846 10.3398C10.6846 10.081 10.8944 9.87109 11.1533 9.87109H12.0908C12.3497 9.87109 12.5596 10.081 12.5596 10.3398C12.5596 10.5987 12.3497 10.8086 12.0908 10.8086H11.1533C10.8944 10.8086 10.6846 10.5987 10.6846 10.3398Z" fill="#848484"/>
<path fill-rule="evenodd" clip-rule="evenodd" d="M10.6846 7.99609C10.6846 7.73721 10.8944 7.52734 11.1533 7.52734H12.0908C12.3497 7.52734 12.5596 7.73721 12.5596 7.99609C12.5596 8.25498 12.3497 8.46484 12.0908 8.46484H11.1533C10.8944 8.46484 10.6846 8.25498 10.6846 7.99609Z" fill="#848484"/>
</svg>
