<svg width="18" height="19" viewBox="0 0 18 19" fill="none" xmlns="http://www.w3.org/2000/svg">
<path fill-rule="evenodd" clip-rule="evenodd" d="M8.09368 4.61716H5.9191C3.30535 4.61716 2.03035 6.09466 2.03743 9.12466V12.7772C2.03743 15.6722 3.72327 17.4572 6.46452 17.4572H11.7841C14.5112 17.4572 16.2041 15.6722 16.2041 12.7697V7.13716C16.2041 4.03216 14.9008 2.45716 12.3295 2.45716H11.2104C10.5509 2.44966 9.93535 2.77216 9.5316 3.31966L8.90827 4.19716C8.70993 4.45966 8.41243 4.61716 8.09368 4.61716ZM12.4004 12.4247H5.84118C5.55077 12.4247 5.31702 12.1697 5.31702 11.8622C5.31702 11.5472 5.55077 11.2997 5.84118 11.2997H12.4004C12.6979 11.2997 12.9316 11.5472 12.9316 11.8622C12.9316 12.1697 12.6979 12.4247 12.4004 12.4247Z" fill="#999999"/>
</svg>
