<svg width="75" height="30" viewBox="0 0 75 30" fill="none" xmlns="http://www.w3.org/2000/svg">
<path d="M26.9432 18.0405H15.5331C16.2115 17.4482 16.5002 16.7073 16.4964 15.8394C16.4925 14.9715 16.0759 14.3092 15.4052 13.6717H22.545C22.3919 12.4764 21.8754 11.4921 21.1767 10.6452C19.1497 8.18621 16.47 7.20466 13.3551 7.94877C10.2145 8.69934 8.19569 10.8024 7.69072 13.9296C7.00407 18.1756 9.80006 21.9355 14.0028 22.4367C15.9931 22.6736 18.0272 22.566 20.0405 22.5923C21.5367 22.6117 23.0335 22.5961 24.5413 22.5961C22.2107 26.1228 15.7987 28.6803 9.99272 25.9844C4.33378 23.3564 1.44065 16.8904 3.78271 10.8789C6.11983 4.8792 12.7843 1.81394 19.0624 3.83734C25.105 5.78483 28.5525 12.2136 26.9432 18.0405Z" fill="#034565"/>
<path d="M74.8265 13.4903C75.0521 17.7934 71.0996 21.6453 66.4572 21.6442C62.0947 21.6442 57.9496 18.3097 57.9688 13.6518C57.9864 8.85014 61.6677 5.34606 66.4171 5.32722C71.1408 5.30837 75.0664 9.1635 74.8265 13.4903ZM62.0377 13.6626C62.0618 13.8414 62.086 14.2209 62.1666 14.5887C62.8846 17.8542 66.6608 19.1858 69.1006 17.1699C70.9053 15.6785 71.3433 12.5933 69.9464 10.6819C68.9941 9.37672 67.7032 8.71715 66.1081 8.85445C63.4505 9.08328 62.0612 11.2068 62.0404 13.6626H62.0377Z" fill="#F5AC3D"/>
<path d="M48.3734 16.4651V21.2635H44.4824V5.65399C46.3387 5.65399 48.1456 5.63461 49.952 5.66261C50.7713 5.66762 51.589 5.73277 52.3983 5.85752C54.2645 6.16442 56.0621 7.72909 56.3503 10.2489C56.6554 12.9281 55.387 15.3274 52.4686 16.0069C53.186 16.9039 53.8715 17.7605 54.5543 18.6177C55.2371 19.4749 55.9265 20.3374 56.7103 21.3179C55.1625 21.3179 53.7914 21.3427 52.423 21.2947C52.1782 21.2861 51.8835 21.0191 51.7166 20.7961C50.6375 19.3569 49.587 17.8962 48.5277 16.443L48.3734 16.4651ZM48.352 11.3365L48.2971 11.3398C48.352 12.0379 48.4069 12.7361 48.4618 13.4343C49.2258 13.4343 49.9893 13.438 50.7534 13.4343C50.8225 13.4343 50.89 13.3928 50.9597 13.3756C51.8237 13.164 52.3369 12.6078 52.4417 11.7657C52.5844 10.6382 52.3034 9.79395 51.4219 9.51236C50.5552 9.23561 49.598 9.22053 48.6775 9.13546C48.5836 9.12684 48.3762 9.40844 48.3663 9.5662C48.3295 10.152 48.352 10.7448 48.352 11.3365Z" fill="#F5AC3D"/>
<path d="M34.6948 21.285H30.8252V5.7546C30.9108 5.71368 30.9739 5.65714 31.0365 5.65822C33.4516 5.69322 35.8727 5.6636 38.2817 5.79121C41.4471 5.95866 43.1706 8.83386 42.7874 11.61C42.3566 14.7329 40.3954 16.3481 37.1719 16.3707C36.5681 16.375 35.9605 16.3993 35.3573 16.3654C34.8562 16.3368 34.6734 16.5027 34.6833 17.0066C34.7124 18.4055 34.6948 19.8059 34.6948 21.285ZM36.0494 13.012C36.6993 12.871 37.3728 12.7967 37.9913 12.5716C38.7016 12.3159 38.9843 11.6843 38.9244 10.839C38.8696 10.1121 38.5545 9.51388 37.7987 9.37659C36.9068 9.21506 35.9874 9.17414 35.0812 9.13268C34.961 9.1273 34.7272 9.41966 34.7167 9.58496C34.6734 10.2451 34.6926 10.9095 34.6964 11.5728C34.7036 13.2344 34.6125 12.8559 36.0494 13.0104V13.012Z" fill="#F5AC3D"/>
<path d="M13.2085 13.7471C14.5357 13.7471 15.375 14.566 15.3821 15.8755C15.3887 17.1262 14.4781 18.0292 13.2118 18.0292C11.9247 18.0265 11.0284 17.144 11.0322 15.8835C11.0361 14.5779 11.8786 13.7519 13.2085 13.7471Z" fill="#395C70"/>
<path d="M31.5144 27.1V27.3956H29.7031V24.9248H31.4941V25.2204H30.039V25.9742H31.3794V26.2703H30.039V27.1H31.5144Z" fill="#034565"/>
<path d="M34.524 26.17V27.3954H34.2232V26.2879C34.2232 26.122 34.1974 26.0036 34.1447 25.933C34.086 25.8523 33.9844 25.8119 33.8412 25.8119C33.7863 25.8107 33.7318 25.8202 33.6807 25.8399C33.6296 25.8596 33.583 25.8891 33.5437 25.9266C33.4273 26.0314 33.369 26.1929 33.3686 26.4112V27.3959H33.0684V25.5922H33.3488V25.8464C33.4018 25.7768 33.464 25.7145 33.5338 25.6611C33.6385 25.5846 33.7656 25.5435 33.8961 25.5438C34.0457 25.5366 34.1936 25.5778 34.3171 25.6611C34.455 25.7642 34.524 25.9338 34.524 26.17Z" fill="#034565"/>
<path d="M37.5584 25.5927V27.2451C37.5584 27.482 37.5233 27.6658 37.453 27.7965C37.3249 28.0355 37.0818 28.1549 36.7236 28.1545C36.587 28.1594 36.4514 28.1301 36.3295 28.0694C36.1648 27.9801 36.0691 27.8298 36.0424 27.6188H36.3432C36.3495 27.6613 36.3642 27.7022 36.3867 27.7392C36.4091 27.7762 36.4387 27.8084 36.4738 27.8341C36.5549 27.8869 36.6511 27.9128 36.7483 27.9079C36.9678 27.9079 37.1158 27.8324 37.1923 27.6812C37.2449 27.5567 37.2683 27.4222 37.2609 27.2876V27.1918L37.2543 27.2053C37.2111 27.2772 37.1496 27.3369 37.0759 27.3786C36.9844 27.4299 36.8805 27.456 36.7752 27.454C36.6494 27.4593 36.5246 27.4303 36.4147 27.3701C36.3048 27.3099 36.2141 27.221 36.1527 27.1132C36.0369 26.9083 35.9799 26.6764 35.9881 26.4423C35.9881 26.1824 36.0548 25.9681 36.1884 25.7994C36.2516 25.7174 36.334 25.6515 36.4287 25.6075C36.5234 25.5634 36.6276 25.5424 36.7323 25.5464C36.8629 25.5421 36.9911 25.5812 37.0962 25.6573C37.163 25.7119 37.2205 25.7766 37.2664 25.849L37.273 25.5948L37.5584 25.5927ZM36.2993 26.487C36.2908 26.6632 36.3331 26.8382 36.4211 26.992C36.4574 27.0527 36.5098 27.1025 36.5728 27.1362C36.6357 27.1699 36.7068 27.1861 36.7784 27.1832C36.8371 27.1846 36.8955 27.1746 36.9502 27.1538C37.0049 27.133 37.0549 27.1018 37.0973 27.062C37.213 26.9544 37.2708 26.7928 37.2708 26.5775C37.2775 26.4109 37.251 26.2447 37.1929 26.088C37.1127 25.9046 36.9768 25.8127 36.785 25.8124C36.5827 25.8124 36.4436 25.8958 36.3679 26.0627C36.3164 26.1981 36.2931 26.3421 36.2993 26.4865V26.487Z" fill="#034565"/>
<path d="M39.3897 24.9248V27.3956H39.0889V24.9248H39.3897Z" fill="#034565"/>
<path d="M41.208 25.2694H40.9072V24.9248H41.208V25.2694ZM41.208 25.5924V27.3962H40.9072V25.5924H41.208Z" fill="#034565"/>
<path d="M44.0237 26.1091H43.73C43.7336 26.0383 43.709 25.969 43.6614 25.9158C43.5901 25.8425 43.4721 25.8081 43.3058 25.8081C43.2138 25.803 43.1228 25.8278 43.0467 25.8786C43.0165 25.899 42.992 25.9264 42.9752 25.9583C42.9585 25.9903 42.95 26.0257 42.9506 26.0617C42.9482 26.0912 42.9539 26.1208 42.9671 26.1474C42.9804 26.174 43.0006 26.1967 43.0258 26.213C43.1059 26.2542 43.1911 26.2848 43.2794 26.304L43.5796 26.3793C43.7624 26.423 43.8909 26.4816 43.9639 26.5554C44.0024 26.5949 44.0324 26.6418 44.0518 26.6931C44.0712 26.7444 44.0798 26.799 44.0769 26.8537C44.0804 26.9366 44.0644 27.0191 44.0302 27.095C43.9961 27.1709 43.9446 27.2381 43.8799 27.2914C43.736 27.4034 43.5557 27.4608 43.3722 27.453C43.0593 27.453 42.8418 27.3751 42.7196 27.2193C42.6349 27.1029 42.5925 26.962 42.5993 26.8192H42.893C42.893 26.9506 42.9376 27.0459 43.0269 27.1051C43.1294 27.1636 43.2472 27.1911 43.3656 27.1843C43.4656 27.1885 43.5649 27.1658 43.6526 27.1186C43.6911 27.0969 43.7228 27.0655 43.7446 27.0276C43.7663 26.9897 43.7772 26.9467 43.7761 26.9032C43.778 26.8734 43.7721 26.8437 43.7592 26.8167C43.7462 26.7897 43.7266 26.7663 43.702 26.7487C43.6144 26.6988 43.5194 26.6625 43.4205 26.641L43.0719 26.5586C42.9606 26.536 42.8574 26.485 42.7728 26.4106C42.7353 26.3717 42.7062 26.3257 42.6873 26.2754C42.6684 26.2252 42.6602 26.1717 42.663 26.1182C42.6594 26.0355 42.6761 25.9531 42.7119 25.8782C42.7476 25.8032 42.8013 25.7377 42.8683 25.6875C43.0046 25.5905 43.1705 25.5419 43.3387 25.5496C43.5516 25.5496 43.7189 25.6026 43.8404 25.7085C43.899 25.758 43.9458 25.8195 43.9775 25.8887C44.0092 25.958 44.0249 26.0332 44.0237 26.1091Z" fill="#034565"/>
<path d="M46.9908 26.1702V27.3956H46.6905V26.2192C46.6905 26.0813 46.6677 25.9821 46.6219 25.9214C46.5674 25.8496 46.4717 25.8137 46.3349 25.8137C46.272 25.8111 46.2092 25.8211 46.1504 25.8431C46.0916 25.8651 46.038 25.8988 45.9929 25.9419C45.8879 26.0445 45.8356 26.2014 45.8359 26.4125V27.3973H45.5352V24.9248H45.8359V25.8326C45.8895 25.7624 45.9529 25.7001 46.0242 25.6474C46.1232 25.5784 46.242 25.5421 46.3634 25.5435C46.5129 25.5362 46.6607 25.5775 46.7839 25.6608C46.9222 25.7642 46.9911 25.934 46.9908 26.1702Z" fill="#034565"/>
<path d="M51.9588 26.6731H50.9741L50.715 27.3956H50.373L51.2963 24.9248H51.6717L52.5614 27.3956H52.1992L51.9588 26.6731ZM51.0773 26.3769H51.8369L51.473 25.2893L51.0773 26.3769Z" fill="#034565"/>
<path d="M55.3932 26.1973H55.1001C55.0889 26.0911 55.0422 25.9915 54.9673 25.914C54.9281 25.8789 54.8821 25.8518 54.832 25.8343C54.782 25.8169 54.7289 25.8094 54.6759 25.8123C54.5977 25.8092 54.5202 25.8278 54.4522 25.8659C54.3843 25.9039 54.3287 25.96 54.2916 26.0277C54.2143 26.1703 54.1764 26.3303 54.1819 26.4918C54.1744 26.6504 54.2046 26.8086 54.2702 26.9537C54.3493 27.1049 54.4834 27.1806 54.6726 27.181C54.7232 27.1808 54.7733 27.1706 54.8199 27.1511C54.8664 27.1316 54.9086 27.1031 54.9437 27.0673C55.0283 26.9821 55.0821 26.8721 55.0968 26.754H55.3921C55.3775 26.9194 55.3142 27.0771 55.2099 27.2079C55.1441 27.2874 55.0601 27.3508 54.9648 27.3928C54.8695 27.4347 54.7654 27.4542 54.661 27.4496C54.5503 27.4543 54.44 27.434 54.3386 27.3901C54.2373 27.3462 54.1476 27.28 54.0765 27.1966C53.9334 27.0279 53.8617 26.8091 53.8613 26.5402C53.8613 26.2425 53.9299 26.0056 54.0666 25.8311C54.217 25.6384 54.4356 25.542 54.7225 25.542C54.9377 25.542 55.1042 25.612 55.222 25.752C55.3244 25.8796 55.3842 26.0351 55.3932 26.1973Z" fill="#034565"/>
<path d="M57.0649 26.1431H56.7844C56.7844 25.9356 56.8528 25.7816 56.9897 25.6811C57.1152 25.5888 57.2932 25.5429 57.5238 25.5433C57.656 25.5399 57.7872 25.5657 57.908 25.6186C57.994 25.6525 58.0672 25.7118 58.1175 25.7883C58.1677 25.8648 58.1925 25.9547 58.1884 26.0456V27.0794C58.1884 27.1526 58.2225 27.1871 58.29 27.1871L58.3871 27.1736V27.3938L58.3059 27.4159C58.2786 27.4234 58.2503 27.4274 58.2219 27.4277C58.1019 27.4277 58.0166 27.3992 57.9661 27.3421C57.924 27.2884 57.9033 27.2214 57.908 27.1537C57.8394 27.2285 57.7601 27.293 57.6725 27.3454C57.5464 27.4154 57.4036 27.4513 57.2586 27.4493C57.1099 27.4552 56.9647 27.4033 56.8547 27.305C56.8024 27.2562 56.7614 27.1971 56.7343 27.1316C56.7072 27.066 56.6947 26.9955 56.6977 26.9248C56.6948 26.8147 56.7243 26.7061 56.7828 26.612C56.8739 26.472 57.0281 26.3886 57.2455 26.3617L57.7395 26.2997C57.7785 26.2989 57.8158 26.2839 57.8443 26.2577C57.8846 26.2096 57.9042 26.148 57.8992 26.086C57.8992 25.8889 57.76 25.7904 57.4815 25.7904C57.3351 25.7904 57.2266 25.8313 57.156 25.9131C57.1065 25.9811 57.0752 26.0601 57.0649 26.1431ZM57.8882 26.7687V26.4726C57.849 26.5025 57.8031 26.5228 57.7543 26.5318C57.6901 26.5474 57.5792 26.5652 57.4211 26.5856C57.263 26.6061 57.1555 26.6395 57.0978 26.689C57.0699 26.7123 57.0477 26.7415 57.0329 26.7744C57.018 26.8073 57.011 26.8431 57.0122 26.8791C57.0061 26.9644 57.0338 27.0487 57.0896 27.1144C57.1225 27.1437 57.1612 27.166 57.2034 27.1799C57.2455 27.1938 57.2901 27.199 57.3344 27.1951C57.4729 27.1966 57.608 27.153 57.7186 27.0713C57.7696 27.0382 57.8116 26.9932 57.8408 26.9405C57.87 26.8877 57.8855 26.8287 57.886 26.7687H57.8882Z" fill="#034565"/>
<path d="M61.2477 24.9248V27.3956H60.9607V27.1485C60.9131 27.2412 60.8398 27.3188 60.7492 27.3724C60.6586 27.4259 60.5543 27.4532 60.4486 27.4511C60.3227 27.4563 60.1979 27.4272 60.088 27.3671C59.978 27.3069 59.8872 27.218 59.8256 27.1103C59.7097 26.9054 59.6528 26.6735 59.6609 26.4394C59.6609 26.1774 59.7266 25.962 59.858 25.7933C59.9219 25.711 60.0053 25.6452 60.1009 25.6015C60.1965 25.5578 60.3015 25.5375 60.4068 25.5424C60.5362 25.5385 60.6631 25.5776 60.7669 25.6533C60.8348 25.7078 60.8935 25.7725 60.9409 25.845L60.9475 25.8245V24.9248H61.2477ZM59.9694 26.4862C59.9609 26.6633 60.0045 26.839 60.0951 26.9924C60.132 27.0533 60.1849 27.1034 60.2484 27.1373C60.3119 27.1713 60.3835 27.1878 60.4557 27.1851C60.5731 27.1874 60.6866 27.1438 60.7713 27.064C60.8844 26.9584 60.9411 26.7969 60.9415 26.5794C60.9481 26.413 60.9226 26.247 60.8663 26.09C60.7883 25.9065 60.6537 25.8146 60.4623 25.8143C60.2596 25.8143 60.1194 25.8977 60.0418 26.0646C59.9886 26.1988 59.9644 26.3424 59.9705 26.4862H59.9694Z" fill="#034565"/>
<path d="M63.9923 26.8303H64.2942C64.2532 27.0272 64.1385 27.2019 63.9725 27.3198C63.922 27.3557 63.8666 27.3845 63.8079 27.4054C63.704 27.4381 63.5953 27.4534 63.4862 27.4506C63.3755 27.4554 63.2652 27.435 63.1638 27.3912C63.0624 27.3473 62.9727 27.281 62.9017 27.1976C62.7586 27.0288 62.6869 26.8101 62.6865 26.5412C62.6865 26.2434 62.7546 26.0065 62.8918 25.8321C63.0422 25.6393 63.2608 25.543 63.5477 25.543C63.798 25.543 63.9883 25.6365 64.1186 25.8235C64.2488 26.0105 64.3139 26.2661 64.3139 26.5902H63.0087C63.0087 26.7808 63.0521 26.9267 63.1393 27.029C63.2266 27.1313 63.3589 27.1819 63.528 27.1819C63.652 27.185 63.7724 27.1404 63.8633 27.0576C63.9333 26.9999 63.9792 26.919 63.9923 26.8303ZM63.0093 26.3458H64.0071C64.0135 26.2129 63.9736 26.0819 63.8941 25.9742C63.8066 25.8644 63.6785 25.8095 63.5098 25.8095C63.4426 25.8093 63.3762 25.8237 63.3153 25.8517C63.2544 25.8796 63.2005 25.9203 63.1575 25.971C63.0605 26.0726 63.0067 26.2066 63.0071 26.3458H63.0093Z" fill="#034565"/>
<path d="M65.7822 27.3959V25.5927H66.0627V25.8468C66.114 25.7773 66.1747 25.715 66.2433 25.6616C66.3493 25.5841 66.4783 25.5429 66.6105 25.5442C66.7061 25.5411 66.8008 25.563 66.8849 25.6078C66.9724 25.6636 67.043 25.7415 67.0891 25.8334C67.1552 25.7549 67.2316 25.6854 67.3163 25.6266C67.4128 25.5694 67.5242 25.5408 67.6369 25.5442C67.7628 25.5408 67.886 25.58 67.986 25.6551C68.1225 25.76 68.1909 25.9253 68.1913 26.151V27.3964H67.8888V26.2334C67.8964 26.1282 67.8727 26.0231 67.8208 25.9308C67.79 25.8906 67.7494 25.8587 67.7026 25.838C67.6559 25.8174 67.6045 25.8088 67.5535 25.8129C67.4953 25.8117 67.4376 25.824 67.3852 25.8489C67.3328 25.8738 67.2872 25.9106 67.2521 25.9561C67.1744 26.0525 67.1335 26.1725 67.1363 26.2953V27.3964H66.8355V26.151C66.8387 26.0726 66.8185 25.9949 66.7773 25.9276C66.7544 25.8911 66.7219 25.8613 66.6834 25.8412C66.6448 25.821 66.6015 25.8113 66.5578 25.8129C66.503 25.8117 66.4485 25.8213 66.3976 25.841C66.3466 25.8607 66.3001 25.8901 66.2608 25.9276C66.1441 26.0324 66.0858 26.1939 66.0858 26.4122V27.397L65.7822 27.3959Z" fill="#034565"/>
<path d="M13.2064 18.1088C14.4562 18.1088 15.4694 17.1149 15.4694 15.8889C15.4694 14.6628 14.4562 13.6689 13.2064 13.6689C11.9566 13.6689 10.9434 14.6628 10.9434 15.8889C10.9434 17.1149 11.9566 18.1088 13.2064 18.1088Z" fill="#F1AE3D"/>
<path d="M73.3113 22.5929H28.4565C28.4284 22.3918 28.3581 22.1986 28.2501 22.0256C28.1421 21.8525 27.9986 21.7033 27.8289 21.5873C27.6591 21.4713 27.4667 21.3911 27.2637 21.3518C27.0608 21.3125 26.8517 21.3148 26.6497 21.3587C26.4477 21.4026 26.2572 21.4871 26.0902 21.6069C25.9232 21.7266 25.7833 21.8791 25.6794 22.0545C25.5754 22.23 25.5097 22.4247 25.4863 22.6263C25.463 22.828 25.4824 23.0322 25.5436 23.226C24.3043 24.7657 22.7252 26.0096 20.9252 26.8644C19.1251 27.7191 17.1509 28.1623 15.1511 28.1607C7.83238 28.1607 1.89955 22.3409 1.89955 15.162C1.89955 7.9832 7.83238 2.16282 15.1511 2.16282C22.1548 2.16282 27.8889 7.49324 28.3686 14.2446H29.726C29.2436 6.76044 22.9029 0.833984 15.1511 0.833984C7.08261 0.833984 0.544922 7.24879 0.544922 15.162C0.544922 23.0753 7.08426 29.4895 15.1511 29.4895C17.3257 29.4915 19.4731 29.0162 21.4361 28.0985C23.3991 27.1807 25.1279 25.8437 26.4959 24.1855C26.858 24.305 27.253 24.2842 27.6 24.1272C27.947 23.9702 28.2196 23.6891 28.3621 23.3413H73.3102L73.3113 22.5929Z" fill="#034567"/>
</svg>
