<svg width="19" height="20" viewBox="0 0 19 20" fill="none" xmlns="http://www.w3.org/2000/svg">
<path fill-rule="evenodd" clip-rule="evenodd" d="M11.8135 13.8501H7.7739C7.46945 13.8501 7.21697 13.5809 7.21697 13.2563C7.21697 12.9318 7.46945 12.6705 7.7739 12.6705H11.8135C12.118 12.6705 12.3704 12.9318 12.3704 13.2563C12.3704 13.5809 12.118 13.8501 11.8135 13.8501ZM9.3036 8.71217H11.8135C12.118 8.71217 12.3704 8.98134 12.3704 9.30592C12.3704 9.63051 12.118 9.89176 11.8135 9.89176H9.3036C8.99915 9.89176 8.74667 9.63051 8.74667 9.30592C8.74667 8.98134 8.99915 8.71217 9.3036 8.71217ZM4.00426 8.01995C3.82972 8.01782 3.63966 8.01551 3.46697 8.01551C3.28133 8.01551 3.13281 8.17384 3.13281 8.37176V14.7368C3.13281 16.7001 4.62539 18.2913 6.46697 18.2913H12.3779C14.3086 18.2913 15.8828 16.6209 15.8828 14.5626V6.02842C15.8828 4.06509 14.3828 2.45801 12.5338 2.45801H8.56846C8.37539 2.45801 8.22687 2.62426 8.22687 2.82217V5.37134C8.22687 6.82009 7.10559 8.00759 5.74667 8.01551C5.42926 8.01551 5.14943 8.01801 4.90454 8.0202C4.71402 8.02191 4.54465 8.02342 4.39519 8.02342C4.28948 8.02342 4.15246 8.02176 4.00426 8.01995ZM3.7995 6.86442C4.40989 6.8668 5.12945 6.86442 5.64702 6.85888C6.46831 6.85888 7.14479 6.13767 7.14479 5.26209V3.17526C7.14479 2.83405 6.75643 2.66463 6.5344 2.91084C6.13254 3.35631 5.5803 3.96864 5.03058 4.57819C4.48223 5.18621 3.93638 5.79147 3.54479 6.22555C3.32796 6.46542 3.48687 6.86363 3.7995 6.86442Z" fill="#999999"/>
</svg>
