<svg width="19" height="19" viewBox="0 0 19 19" fill="none" xmlns="http://www.w3.org/2000/svg">
<path fill-rule="evenodd" clip-rule="evenodd" d="M1.56445 9.37934C1.56445 5.23969 4.93077 1.875 9.06445 1.875C13.1981 1.875 16.5645 5.23969 16.5645 9.37934C16.5645 13.5103 13.1981 16.875 9.06445 16.875C4.93077 16.875 1.56445 13.5103 1.56445 9.37934ZM11.8154 10.1384C11.8951 10.0588 11.9964 9.93578 12.0181 9.90684C12.134 9.75488 12.1919 9.56675 12.1919 9.37934C12.1919 9.16878 12.1267 8.97341 12.0036 8.81422C11.9936 8.80414 11.9738 8.78264 11.9481 8.75463C11.8999 8.70221 11.8308 8.62698 11.7647 8.56096C11.1711 7.9242 9.62189 6.88224 8.81108 6.56386C8.68801 6.51393 8.37671 6.40467 8.21021 6.39743C8.05094 6.39743 7.89891 6.43361 7.75413 6.50597C7.57314 6.60727 7.42835 6.76646 7.34872 6.95459C7.29804 7.08484 7.21841 7.47558 7.21841 7.48281C7.13878 7.90973 7.09534 8.60438 7.09534 9.37138C7.09534 10.1029 7.13878 10.7679 7.20393 11.2021C7.20572 11.2039 7.21195 11.2349 7.22163 11.2831C7.25104 11.4298 7.31231 11.7353 7.37768 11.8605C7.53694 12.1644 7.84824 12.3526 8.18125 12.3526H8.21021C8.42739 12.3453 8.88347 12.1572 8.88347 12.15C9.65084 11.8316 11.1639 10.8403 11.772 10.1818L11.8154 10.1384Z" fill="#999999"/>
</svg>
