<svg width="13" height="13" viewBox="0 0 13 13" fill="none" xmlns="http://www.w3.org/2000/svg">
<path fill-rule="evenodd" clip-rule="evenodd" d="M6.19131 1.66211C4.97921 1.66211 3.81676 2.14361 2.95968 3.00069C2.1026 3.85777 1.62109 5.02023 1.62109 6.23232C1.62109 7.44442 2.1026 8.60687 2.95968 9.46395C3.81676 10.321 4.97921 10.8025 6.19131 10.8025C7.3985 10.8025 8.55645 10.3249 9.41252 9.47433C9.41671 9.46983 9.421 9.46539 9.42539 9.46101C9.4294 9.457 9.43347 9.45308 9.43758 9.44923C10.2855 8.59359 10.7615 7.43749 10.7615 6.23232C10.7615 5.02023 10.28 3.85777 9.42293 3.00069C8.56585 2.14361 7.4034 1.66211 6.19131 1.66211ZM10.4696 9.79934C11.301 8.80228 11.7615 7.54104 11.7615 6.23232C11.7615 4.75501 11.1747 3.3382 10.13 2.29359C9.08542 1.24897 7.66862 0.662109 6.19131 0.662109C4.71399 0.662109 3.29719 1.24897 2.25257 2.29359C1.20795 3.3382 0.621094 4.75501 0.621094 6.23232C0.621094 7.70963 1.20795 9.12644 2.25257 10.1711C3.29719 11.2157 4.71399 11.8025 6.19131 11.8025C7.50202 11.8025 8.7651 11.3406 9.76287 10.5068L12.1006 12.8488C12.2957 13.0442 12.6123 13.0445 12.8077 12.8494C13.0032 12.6543 13.0035 12.3377 12.8084 12.1423L10.4696 9.79934Z" fill="#262551"/>
</svg>
